<?xml version="1.0" encoding="UTF-8" standalone="no"?>
<!DOCTYPE svg PUBLIC "-//W3C//DTD SVG 1.1//EN" "http://www.w3.org/Graphics/SVG/1.1/DTD/svg11.dtd">
<svg version="1.1" xmlns="http://www.w3.org/2000/svg" xmlns:xlink="http://www.w3.org/1999/xlink" preserveAspectRatio="xMidYMid meet" viewBox="0 0 138 60" width="138" height="60"><defs><path d="M108 0C124.57 0 138 13.43 138 30C138 36 138 24 138 30C138 46.57 124.57 60 108 60C86.4 60 51.6 60 30 60C13.43 60 0 46.57 0 30C0 24 0 36 0 30C0 13.43 13.43 0 30 0C51.6 0 86.4 0 108 0Z" id="dIRf0EgLd"></path><path d="M96.18 30C96.18 45 84 57.18 69 57.18C54 57.18 41.82 45 41.82 30C41.82 15 54 2.82 69 2.82C84 2.82 96.18 15 96.18 30Z" id="a3FHIN17Ys"></path></defs><g><g><g><use xlink:href="#dIRf0EgLd" opacity="1" fill="#639fc6" fill-opacity="1"></use></g><g><use xlink:href="#a3FHIN17Ys" opacity="1" fill="#efe297" fill-opacity="1"></use></g></g></g></svg>