<?xml version="1.0" encoding="UTF-8" standalone="no"?>
<!DOCTYPE svg PUBLIC "-//W3C//DTD SVG 1.1//EN" "http://www.w3.org/Graphics/SVG/1.1/DTD/svg11.dtd">
<svg version="1.1" xmlns="http://www.w3.org/2000/svg" xmlns:xlink="http://www.w3.org/1999/xlink" preserveAspectRatio="xMidYMid meet" viewBox="0 0 51 39" width="51" height="39"><defs><path d="M49.91 2.46L50 2.48L50.1 2.5L50.19 2.54L50.28 2.57L50.36 2.62L50.44 2.67L50.51 2.72L50.58 2.79L50.65 2.85L50.71 2.92L50.77 2.99L50.82 3.07L50.86 3.15L50.9 3.24L50.93 3.32L50.96 3.41L50.98 3.51L50.99 3.6L51 3.69L51 3.79L50.99 3.89L50.98 3.98L50.95 4.08L50.92 4.18L43.63 24.24L43.59 24.36L43.54 24.48L43.48 24.59L43.42 24.7L43.35 24.8L43.28 24.91L43.2 25L43.12 25.1L43.04 25.19L42.95 25.27L42.86 25.35L42.77 25.43L42.67 25.5L42.57 25.57L42.46 25.63L42.35 25.69L42.24 25.75L42.13 25.79L42.02 25.84L41.9 25.87L41.78 25.91L41.66 25.93L41.53 25.95L41.41 25.97L41.28 25.98L41.16 25.98L6.44 25.98L6.32 25.98L6.2 25.97L6.09 25.95L5.98 25.92L5.87 25.89L5.77 25.86L5.67 25.81L5.57 25.76L5.47 25.71L5.38 25.65L5.29 25.58L5.21 25.51L5.13 25.44L5.05 25.36L4.98 25.28L4.92 25.19L4.86 25.1L4.8 25L4.76 24.9L4.71 24.8L4.68 24.7L4.64 24.59L4.62 24.48L4.6 24.37L4.59 24.25L4.59 24.13L4.59 4.29L4.59 4.17L4.6 4.06L4.62 3.95L4.64 3.84L4.68 3.73L4.71 3.62L4.76 3.52L4.8 3.42L4.86 3.33L4.92 3.23L4.98 3.15L5.05 3.06L5.13 2.98L5.21 2.91L5.29 2.84L5.38 2.77L5.47 2.71L5.57 2.66L5.67 2.61L5.77 2.57L5.87 2.53L5.98 2.5L6.09 2.47L6.2 2.46L6.32 2.45L6.44 2.44L49.71 2.44L49.81 2.45L49.91 2.46ZM8.11 4.52L8.03 4.52L7.95 4.54L7.87 4.56L7.79 4.59L7.72 4.62L7.65 4.65L7.58 4.69L7.51 4.74L7.45 4.79L7.4 4.84L7.34 4.9L7.29 4.96L7.25 5.03L7.21 5.09L7.17 5.16L7.14 5.24L7.11 5.31L7.09 5.39L7.08 5.47L7.07 5.56L7.07 5.64L7.07 22.17L7.07 22.25L7.08 22.33L7.09 22.41L7.11 22.49L7.14 22.57L7.17 22.64L7.21 22.71L7.25 22.78L7.29 22.84L7.34 22.91L7.4 22.96L7.45 23.02L7.51 23.07L7.58 23.11L7.65 23.15L7.72 23.19L7.79 23.22L7.87 23.25L7.95 23.27L8.03 23.28L8.11 23.29L8.19 23.29L39.24 23.29L39.34 23.29L39.43 23.28L39.52 23.27L39.61 23.25L39.69 23.23L39.78 23.21L39.86 23.17L39.95 23.14L40.03 23.1L40.1 23.05L40.18 23.01L40.25 22.95L40.32 22.9L40.38 22.84L40.45 22.78L40.51 22.71L40.56 22.64L40.62 22.57L40.66 22.49L40.71 22.41L40.75 22.33L40.79 22.24L47.37 5.56L47.39 5.49L47.41 5.42L47.42 5.35L47.42 5.29L47.42 5.22L47.41 5.15L47.4 5.09L47.38 5.02L47.36 4.96L47.33 4.9L47.29 4.85L47.25 4.8L47.21 4.75L47.16 4.7L47.11 4.66L47.05 4.62L46.99 4.59L46.93 4.56L46.87 4.54L46.8 4.53L46.73 4.52L46.66 4.51L8.19 4.51L8.11 4.52Z" id="a3yaXE4sc"></path><path d="M0.22 0.83C0.68 0.04 1.7 -0.24 2.5 0.22C3.56 0.83 5.29 1.83 6.34 2.44C7.14 2.9 7.41 3.92 6.95 4.72C6.79 5.01 7.12 4.43 6.95 4.72C6.49 5.52 5.48 5.79 4.68 5.33C3.62 4.72 1.89 3.72 0.83 3.11C0.04 2.65 -0.24 1.63 0.22 0.83C0.39 0.54 0.06 1.12 0.22 0.83Z" id="hWgVlHBhd"></path><path d="M8.84 23.72C9.76 23.72 10.51 24.47 10.51 25.39C10.51 26.61 10.51 28.6 10.51 29.83C10.51 30.75 9.76 31.49 8.84 31.49C8.51 31.49 9.18 31.49 8.84 31.49C7.92 31.49 7.18 30.75 7.18 29.83C7.18 28.6 7.18 26.61 7.18 25.39C7.18 24.47 7.92 23.72 8.84 23.72C9.18 23.72 8.51 23.72 8.84 23.72Z" id="jlJq0n97t"></path><path d="M40.63 29.83C40.63 30.75 39.89 31.49 38.97 31.49C32.66 31.49 15.41 31.49 9.1 31.49C8.18 31.49 7.43 30.75 7.43 29.83C7.43 29.49 7.43 30.16 7.43 29.83C7.43 28.91 8.18 28.16 9.1 28.16C15.41 28.16 32.66 28.16 38.97 28.16C39.89 28.16 40.63 28.91 40.63 29.83C40.63 30.16 40.63 29.49 40.63 29.83Z" id="b11ciay7HN"></path><path d="M20.28 33.79C20.28 36.34 18.21 38.42 15.66 38.42C13.1 38.42 11.03 36.34 11.03 33.79C11.03 31.23 13.1 29.16 15.66 29.16C18.21 29.16 20.28 31.23 20.28 33.79Z" id="e2MQFFFPE"></path><path d="M37.75 33.79C37.75 36.34 35.68 38.42 33.12 38.42C30.57 38.42 28.49 36.34 28.49 33.79C28.49 31.23 30.57 29.16 33.12 29.16C35.68 29.16 37.75 31.23 37.75 33.79Z" id="a1qtNg69CV"></path></defs><g><g><g><use xlink:href="#a3yaXE4sc" opacity="1" fill="#999595" fill-opacity="1"></use></g><g><use xlink:href="#hWgVlHBhd" opacity="1" fill="#999595" fill-opacity="1"></use></g><g><use xlink:href="#jlJq0n97t" opacity="1" fill="#999595" fill-opacity="1"></use></g><g><use xlink:href="#b11ciay7HN" opacity="1" fill="#999595" fill-opacity="1"></use></g><g><use xlink:href="#e2MQFFFPE" opacity="1" fill="#999595" fill-opacity="1"></use></g><g><use xlink:href="#a1qtNg69CV" opacity="1" fill="#999595" fill-opacity="1"></use></g></g></g></svg>